mtllib pinball_machine.mtl
s off
o cabinet_base
v -0.62 -0.38 0.18
v 0.62 -0.38 0.18
v 0.62 0.38 0.18
v -0.62 0.38 0.18
v -0.62 -0.38 0.95
v 0.62 -0.38 0.95
v 0.62 0.38 0.95
v -0.62 0.38 0.95
usemtl CabinetCream
f 1 2 3 4
f 5 8 7 6
f 1 5 6 2
f 2 6 7 3
f 3 7 8 4
f 5 1 4 8
o toe_kick
v -0.56 -0.42 0.05
v 0.56 -0.42 0.05
v 0.56 0.34 0.05
v -0.56 0.34 0.05
v -0.56 -0.42 0.22
v 0.56 -0.42 0.22
v 0.56 0.34 0.22
v -0.56 0.34 0.22
usemtl Dark
f 9 10 11 12
f 13 16 15 14
f 9 13 14 10
f 10 14 15 11
f 11 15 16 12
f 13 9 12 16
o playfield_frame
v -0.64 -0.46 0.94
v 0.64 -0.46 0.94
v 0.64 0.3 0.94
v -0.64 0.3 0.94
v -0.64 -0.46 1.38
v 0.64 -0.46 1.38
v 0.64 0.3 1.38
v -0.64 0.3 1.38
usemtl EdgeBlue
f 17 18 19 20
f 21 24 23 22
f 17 21 22 18
f 18 22 23 19
f 19 23 24 20
f 21 17 20 24
o playfield_glass
v -0.56 -0.49 1.02
v 0.56 -0.49 1.02
v 0.56 -0.45 1.02
v -0.56 -0.45 1.02
v -0.56 -0.49 1.31
v 0.56 -0.49 1.31
v 0.56 -0.45 1.31
v -0.56 -0.45 1.31
usemtl Glass
f 25 26 27 28
f 29 32 31 30
f 25 29 30 26
f 26 30 31 27
f 27 31 32 28
f 29 25 28 32
o marquee
v -0.6 0.1 1.36
v 0.6 0.1 1.36
v 0.6 0.32 1.36
v -0.6 0.32 1.36
v -0.6 0.1 2.02
v 0.6 0.1 2.02
v 0.6 0.32 2.02
v -0.6 0.32 2.02
usemtl CabinetCream
f 33 34 35 36
f 37 40 39 38
f 33 37 38 34
f 34 38 39 35
f 35 39 40 36
f 37 33 36 40
o marquee_face
v -0.5 0.075 1.5
v 0.5 0.075 1.5
v 0.5 0.1 1.5
v -0.5 0.1 1.5
v -0.5 0.075 1.9
v 0.5 0.075 1.9
v 0.5 0.1 1.9
v -0.5 0.1 1.9
usemtl Glow
f 41 42 43 44
f 45 48 47 46
f 41 45 46 42
f 42 46 47 43
f 43 47 48 44
f 45 41 44 48
o button_panel
v -0.42 -0.48 0.78
v 0.42 -0.48 0.78
v 0.42 -0.39 0.78
v -0.42 -0.39 0.78
v -0.42 -0.48 0.91
v 0.42 -0.48 0.91
v 0.42 -0.39 0.91
v -0.42 -0.39 0.91
usemtl AccentOrange
f 49 50 51 52
f 53 56 55 54
f 49 53 54 50
f 50 54 55 51
f 51 55 56 52
f 53 49 52 56
o leg_fl
v -0.52 -0.22 -0.58
v -0.43 -0.22 -0.58
v -0.43 -0.13 -0.58
v -0.52 -0.13 -0.58
v -0.52 -0.22 0.18
v -0.43 -0.22 0.18
v -0.43 -0.13 0.18
v -0.52 -0.13 0.18
usemtl Dark
f 57 58 59 60
f 61 64 63 62
f 57 61 62 58
f 58 62 63 59
f 59 63 64 60
f 61 57 60 64
o leg_fr
v 0.43 -0.22 -0.58
v 0.52 -0.22 -0.58
v 0.52 -0.13 -0.58
v 0.43 -0.13 -0.58
v 0.43 -0.22 0.18
v 0.52 -0.22 0.18
v 0.52 -0.13 0.18
v 0.43 -0.13 0.18
usemtl Dark
f 65 66 67 68
f 69 72 71 70
f 65 69 70 66
f 66 70 71 67
f 67 71 72 68
f 69 65 68 72
o leg_bl
v -0.52 0.18 -0.58
v -0.43 0.18 -0.58
v -0.43 0.27 -0.58
v -0.52 0.27 -0.58
v -0.52 0.18 0.18
v -0.43 0.18 0.18
v -0.43 0.27 0.18
v -0.52 0.27 0.18
usemtl Dark
f 73 74 75 76
f 77 80 79 78
f 73 77 78 74
f 74 78 79 75
f 75 79 80 76
f 77 73 76 80
o leg_br
v 0.43 0.18 -0.58
v 0.52 0.18 -0.58
v 0.52 0.27 -0.58
v 0.43 0.27 -0.58
v 0.43 0.18 0.18
v 0.52 0.18 0.18
v 0.52 0.27 0.18
v 0.43 0.27 0.18
usemtl Dark
f 81 82 83 84
f 85 88 87 86
f 81 85 86 82
f 82 86 87 83
f 83 87 88 84
f 85 81 84 88
